%TF.GenerationSoftware,KiCad,Pcbnew,9.0.0*%
%TF.CreationDate,2025-03-07T03:21:26-05:00*%
%TF.ProjectId,Radio,52616469-6f2e-46b6-9963-61645f706362,1*%
%TF.SameCoordinates,Original*%
%TF.FileFunction,Copper,L1,Top*%
%TF.FilePolarity,Positive*%
%FSLAX46Y46*%
G04 Gerber Fmt 4.6, Leading zero omitted, Abs format (unit mm)*
G04 Created by KiCad (PCBNEW 9.0.0) date 2025-03-07 03:21:26*
%MOMM*%
%LPD*%
G01*
G04 APERTURE LIST*
%TA.AperFunction,ComponentPad*%
%ADD10R,1.524000X1.524000*%
%TD*%
%TA.AperFunction,ComponentPad*%
%ADD11C,1.524000*%
%TD*%
%TA.AperFunction,ComponentPad*%
%ADD12C,1.778000*%
%TD*%
%TA.AperFunction,ComponentPad*%
%ADD13C,2.540000*%
%TD*%
%TA.AperFunction,ComponentPad*%
%ADD14R,1.700000X1.700000*%
%TD*%
%TA.AperFunction,ComponentPad*%
%ADD15O,1.700000X1.700000*%
%TD*%
%TA.AperFunction,ComponentPad*%
%ADD16C,1.676400*%
%TD*%
%TA.AperFunction,Conductor*%
%ADD17C,0.200000*%
%TD*%
G04 APERTURE END LIST*
D10*
%TO.P,U3,1,3V3*%
%TO.N,Net-(J1-Pin_1)*%
X152933400Y-109474000D03*
D11*
%TO.P,U3,2,5V*%
%TO.N,Net-(U4-Vin)*%
X155473400Y-109474000D03*
%TO.P,U3,3,GPIO2/SDA1*%
%TO.N,Net-(J1-Pin_3)*%
X152933400Y-112014000D03*
%TO.P,U3,4,5V*%
%TO.N,Net-(J1-Pin_4)*%
X155473400Y-112014000D03*
%TO.P,U3,5,GPIO3/SCL1*%
%TO.N,Net-(J1-Pin_5)*%
X152933400Y-114554000D03*
%TO.P,U3,6,GND*%
%TO.N,Net-(U2-GND)*%
X155473400Y-114554000D03*
%TO.P,U3,7,GPIO4/GPIO_GCKL*%
%TO.N,unconnected-(U3-GPIO4{slash}GPIO_GCKL-Pad7)*%
X152933400Y-117094000D03*
%TO.P,U3,8,GPIO14/TXD0*%
%TO.N,unconnected-(U3-GPIO14{slash}TXD0-Pad8)*%
X155473400Y-117094000D03*
%TO.P,U3,9,GND*%
%TO.N,Net-(J1-Pin_9)*%
X152933400Y-119634000D03*
%TO.P,U3,10,GPIO15/RXD0*%
%TO.N,unconnected-(U3-GPIO15{slash}RXD0-Pad10)*%
X155473400Y-119634000D03*
%TO.P,U3,11,GPIO17/GPIO_GEN0*%
%TO.N,Net-(U1-SW2)*%
X152933400Y-122174000D03*
%TO.P,U3,12,GPIO18/GPIO_GEN1*%
%TO.N,Net-(J1-Pin_12)*%
X155473400Y-122174000D03*
%TO.P,U3,13,GPIO27/GPIO_GEN2*%
%TO.N,Net-(U1-ENCA)*%
X152933400Y-124714000D03*
%TO.P,U3,14,GND*%
%TO.N,unconnected-(U3-GND-Pad14)*%
X155473400Y-124714000D03*
%TO.P,U3,15,GPIO22/GPIO_GEN3*%
%TO.N,Net-(U1-SW5)*%
X152933400Y-127254000D03*
%TO.P,U3,16,GPIO23/GPIO_GEN4*%
%TO.N,unconnected-(U3-GPIO23{slash}GPIO_GEN4-Pad16)*%
X155473400Y-127254000D03*
%TO.P,U3,17,3V3*%
%TO.N,unconnected-(U3-3V3-Pad17)*%
X152933400Y-129794000D03*
%TO.P,U3,18,GPIO24/GPIO_GEN5*%
%TO.N,Net-(U1-SW1)*%
X155473400Y-129794000D03*
%TO.P,U3,19,GPIO10/SPI_MOSI*%
%TO.N,Net-(U3-GPIO10{slash}SPI_MOSI)*%
X152933400Y-132334000D03*
%TO.P,U3,20,GND*%
%TO.N,Net-(U1-COMB)*%
X155473400Y-132334000D03*
%TO.P,U3,21,GPIO9/SPI_MISO*%
%TO.N,Net-(U3-GPIO9{slash}SPI_MISO)*%
X152933400Y-134874000D03*
%TO.P,U3,22,GPIO25/GPIO_GEN6*%
%TO.N,Net-(U3-GPIO25{slash}GPIO_GEN6)*%
X155473400Y-134874000D03*
%TO.P,U3,23,GPIO11/SPI_SCLK*%
%TO.N,Net-(U3-GPIO11{slash}SPI_SCLK)*%
X152933400Y-137414000D03*
%TO.P,U3,24,GPIO8/~{SPI_CE0}*%
%TO.N,Net-(U3-GPIO8{slash}~{SPI_CE0})*%
X155473400Y-137414000D03*
%TO.P,U3,25,GND*%
%TO.N,Net-(U1-COMA)*%
X152933400Y-139954000D03*
%TO.P,U3,26,GPIO7/~{SPI_CE1}*%
%TO.N,unconnected-(U3-GPIO7{slash}~{SPI_CE1}-Pad26)*%
X155473400Y-139954000D03*
%TO.P,U3,27,ID_SD*%
%TO.N,unconnected-(U3-ID_SD-Pad27)*%
X152933400Y-142494000D03*
%TO.P,U3,28,ID_SC*%
%TO.N,unconnected-(U3-ID_SC-Pad28)*%
X155473400Y-142494000D03*
%TO.P,U3,29,GPIO5*%
%TO.N,Net-(U1-ENCB)*%
X152933400Y-145034000D03*
%TO.P,U3,30,GND*%
%TO.N,unconnected-(U3-GND-Pad30)*%
X155473400Y-145034000D03*
%TO.P,U3,31,GPIO6*%
%TO.N,unconnected-(U3-GPIO6-Pad31)*%
X152933400Y-147574000D03*
%TO.P,U3,32,GPIO12*%
%TO.N,Net-(U1-SW3)*%
X155473400Y-147574000D03*
%TO.P,U3,33,GPIO13*%
%TO.N,Net-(U1-SW4)*%
X152933400Y-150114000D03*
%TO.P,U3,34,GND*%
%TO.N,unconnected-(U3-GND-Pad34)*%
X155473400Y-150114000D03*
%TO.P,U3,35,GPIO19*%
%TO.N,Net-(J1-Pin_35)*%
X152933400Y-152654000D03*
%TO.P,U3,36,GPIO16*%
%TO.N,unconnected-(U3-GPIO16-Pad36)*%
X155473400Y-152654000D03*
%TO.P,U3,37,GPIO26*%
%TO.N,Net-(U3-GPIO26)*%
X152933400Y-155194000D03*
%TO.P,U3,38,GPIO20*%
%TO.N,Net-(J1-Pin_38)*%
X155473400Y-155194000D03*
%TO.P,U3,39,GND*%
%TO.N,unconnected-(U3-GND-Pad39)*%
X152933400Y-157734000D03*
%TO.P,U3,40,GPIO21*%
%TO.N,Net-(J1-Pin_40)*%
X155473400Y-157734000D03*
%TD*%
D12*
%TO.P,U4,G5,G5*%
%TO.N,unconnected-(U4-PadG5)*%
X135255000Y-137642600D03*
%TO.P,U4,G4,G4*%
%TO.N,unconnected-(U4-PadG4)*%
X132715000Y-137642600D03*
%TO.P,U4,G3,G3*%
%TO.N,unconnected-(U4-PadG3)*%
X130175000Y-137642600D03*
%TO.P,U4,G2,G2*%
%TO.N,unconnected-(U4-PadG2)*%
X127635000Y-137642600D03*
%TO.P,U4,G1,G1*%
%TO.N,unconnected-(U4-PadG1)*%
X125095000Y-137642600D03*
%TO.P,U4,9,RST*%
%TO.N,Net-(U3-GPIO26)*%
X145415000Y-163042600D03*
%TO.P,U4,8,CS*%
%TO.N,Net-(U3-GPIO8{slash}~{SPI_CE0})*%
X142875000Y-163042600D03*
%TO.P,U4,7,MOSI*%
%TO.N,Net-(U3-GPIO10{slash}SPI_MOSI)*%
X140335000Y-163042600D03*
%TO.P,U4,6,MISO*%
%TO.N,Net-(U3-GPIO9{slash}SPI_MISO)*%
X137795000Y-163042600D03*
%TO.P,U4,5,SCK*%
%TO.N,Net-(U3-GPIO11{slash}SPI_SCLK)*%
X135255000Y-163042600D03*
%TO.P,U4,4,G0*%
%TO.N,Net-(U3-GPIO25{slash}GPIO_GEN6)*%
X132715000Y-163042600D03*
%TO.P,U4,3,EN*%
%TO.N,unconnected-(U4-EN-Pad3)*%
X130175000Y-163042600D03*
%TO.P,U4,2,GND*%
%TO.N,Net-(J1-Pin_9)*%
X127635000Y-163042600D03*
%TO.P,U4,1,Vin*%
%TO.N,Net-(U4-Vin)*%
X125095000Y-163042600D03*
%TD*%
D13*
%TO.P,U1,A,ENCA*%
%TO.N,Net-(U1-ENCA)*%
X123047072Y-106684836D03*
%TO.P,U1,B,ENCB*%
%TO.N,Net-(U1-ENCB)*%
X123047072Y-119780454D03*
%TO.P,U1,COM_A,COMA*%
%TO.N,Net-(U1-COMA)*%
X136142690Y-119780454D03*
%TO.P,U1,COM_B,COMB*%
%TO.N,Net-(U1-COMB)*%
X132847572Y-97153037D03*
%TO.P,U1,S1,SW1*%
%TO.N,Net-(U1-SW1)*%
X130705039Y-112122487D03*
%TO.P,U1,S2,SW2*%
%TO.N,Net-(U1-SW2)*%
X121844991Y-98128844D03*
%TO.P,U1,S3,SW3*%
%TO.N,Net-(U1-SW3)*%
X113444562Y-116838890D03*
%TO.P,U1,S4,SW4*%
%TO.N,Net-(U1-SW4)*%
X137344771Y-128336446D03*
%TO.P,U1,S5,SW5*%
%TO.N,Net-(U1-SW5)*%
X145745200Y-109626400D03*
%TD*%
D14*
%TO.P,U2,1,GND*%
%TO.N,Net-(U2-GND)*%
X127127000Y-21945600D03*
D15*
%TO.P,U2,2,VCC*%
%TO.N,Net-(J1-Pin_1)*%
X129667000Y-21945600D03*
%TO.P,U2,3,SCL*%
%TO.N,Net-(J1-Pin_5)*%
X132207000Y-21945600D03*
%TO.P,U2,4,SDA*%
%TO.N,Net-(J1-Pin_3)*%
X134747000Y-21945600D03*
%TD*%
D16*
%TO.P,J1,1,Pin_1*%
%TO.N,Net-(J1-Pin_1)*%
X130479800Y-82727800D03*
%TO.P,J1,2,Pin_2*%
%TO.N,unconnected-(J1-Pin_2-Pad2)*%
X133019800Y-82727800D03*
%TO.P,J1,3,Pin_3*%
%TO.N,Net-(J1-Pin_3)*%
X130479800Y-80187800D03*
%TO.P,J1,4,Pin_4*%
%TO.N,Net-(J1-Pin_4)*%
X133019800Y-80187800D03*
%TO.P,J1,5,Pin_5*%
%TO.N,Net-(J1-Pin_5)*%
X130479800Y-77647800D03*
%TO.P,J1,6,Pin_6*%
%TO.N,unconnected-(J1-Pin_6-Pad6)*%
X133019800Y-77647800D03*
%TO.P,J1,7,Pin_7*%
%TO.N,unconnected-(J1-Pin_7-Pad7)*%
X130479800Y-75107800D03*
%TO.P,J1,8,Pin_8*%
%TO.N,unconnected-(J1-Pin_8-Pad8)*%
X133019800Y-75107800D03*
%TO.P,J1,9,Pin_9*%
%TO.N,Net-(J1-Pin_9)*%
X130479800Y-72567800D03*
%TO.P,J1,10,Pin_10*%
%TO.N,unconnected-(J1-Pin_10-Pad10)*%
X133019800Y-72567800D03*
%TO.P,J1,11,Pin_11*%
%TO.N,unconnected-(J1-Pin_11-Pad11)*%
X130479800Y-70027800D03*
%TO.P,J1,12,Pin_12*%
%TO.N,Net-(J1-Pin_12)*%
X133019800Y-70027800D03*
%TO.P,J1,13,Pin_13*%
%TO.N,unconnected-(J1-Pin_13-Pad13)*%
X130479800Y-67487800D03*
%TO.P,J1,14,Pin_14*%
%TO.N,unconnected-(J1-Pin_14-Pad14)*%
X133019800Y-67487800D03*
%TO.P,J1,15,Pin_15*%
%TO.N,unconnected-(J1-Pin_15-Pad15)*%
X130479800Y-64947800D03*
%TO.P,J1,16,Pin_16*%
%TO.N,unconnected-(J1-Pin_16-Pad16)*%
X133019800Y-64947800D03*
%TO.P,J1,17,Pin_17*%
%TO.N,unconnected-(J1-Pin_17-Pad17)*%
X130479800Y-62407800D03*
%TO.P,J1,18,Pin_18*%
%TO.N,unconnected-(J1-Pin_18-Pad18)*%
X133019800Y-62407800D03*
%TO.P,J1,19,Pin_19*%
%TO.N,unconnected-(J1-Pin_19-Pad19)*%
X130479800Y-59867800D03*
%TO.P,J1,20,Pin_20*%
%TO.N,unconnected-(J1-Pin_20-Pad20)*%
X133019800Y-59867800D03*
%TO.P,J1,21,Pin_21*%
%TO.N,unconnected-(J1-Pin_21-Pad21)*%
X130479800Y-57327800D03*
%TO.P,J1,22,Pin_22*%
%TO.N,unconnected-(J1-Pin_22-Pad22)*%
X133019800Y-57327800D03*
%TO.P,J1,23,Pin_23*%
%TO.N,unconnected-(J1-Pin_23-Pad23)*%
X130479800Y-54787800D03*
%TO.P,J1,24,Pin_24*%
%TO.N,unconnected-(J1-Pin_24-Pad24)*%
X133019800Y-54787800D03*
%TO.P,J1,25,Pin_25*%
%TO.N,unconnected-(J1-Pin_25-Pad25)*%
X130479800Y-52247800D03*
%TO.P,J1,26,Pin_26*%
%TO.N,unconnected-(J1-Pin_26-Pad26)*%
X133019800Y-52247800D03*
%TO.P,J1,27,Pin_27*%
%TO.N,unconnected-(J1-Pin_27-Pad27)*%
X130479800Y-49707800D03*
%TO.P,J1,28,Pin_28*%
%TO.N,unconnected-(J1-Pin_28-Pad28)*%
X133019800Y-49707800D03*
%TO.P,J1,29,Pin_29*%
%TO.N,unconnected-(J1-Pin_29-Pad29)*%
X130479800Y-47167800D03*
%TO.P,J1,30,Pin_30*%
%TO.N,unconnected-(J1-Pin_30-Pad30)*%
X133019800Y-47167800D03*
%TO.P,J1,31,Pin_31*%
%TO.N,unconnected-(J1-Pin_31-Pad31)*%
X130479800Y-44627800D03*
%TO.P,J1,32,Pin_32*%
%TO.N,unconnected-(J1-Pin_32-Pad32)*%
X133019800Y-44627800D03*
%TO.P,J1,33,Pin_33*%
%TO.N,unconnected-(J1-Pin_33-Pad33)*%
X130479800Y-42087800D03*
%TO.P,J1,34,Pin_34*%
%TO.N,unconnected-(J1-Pin_34-Pad34)*%
X133019800Y-42087800D03*
%TO.P,J1,35,Pin_35*%
%TO.N,Net-(J1-Pin_35)*%
X130479800Y-39547800D03*
%TO.P,J1,36,Pin_36*%
%TO.N,unconnected-(J1-Pin_36-Pad36)*%
X133019800Y-39547800D03*
%TO.P,J1,37,Pin_37*%
%TO.N,unconnected-(J1-Pin_37-Pad37)*%
X130479800Y-37007800D03*
%TO.P,J1,38,Pin_38*%
%TO.N,Net-(J1-Pin_38)*%
X133019800Y-37007800D03*
%TO.P,J1,39,Pin_39*%
%TO.N,unconnected-(J1-Pin_39-Pad39)*%
X130479800Y-34467800D03*
%TO.P,J1,40,Pin_40*%
%TO.N,Net-(J1-Pin_40)*%
X133019800Y-34467800D03*
%TD*%
D17*
%TO.N,Net-(J1-Pin_40)*%
X155473400Y-157734000D02*
X157285400Y-155922000D01*
X157285400Y-155922000D02*
X157285400Y-58733400D01*
X157285400Y-58733400D02*
X133019800Y-34467800D01*
%TO.N,Net-(U1-COMB)*%
X132847572Y-97153037D02*
X128453200Y-92758665D01*
X128453200Y-92758665D02*
X128453200Y-80341727D01*
X131619000Y-72095927D02*
X132442527Y-71272400D01*
X130951673Y-78787000D02*
X131619000Y-78119673D01*
X128453200Y-80341727D02*
X130007927Y-78787000D01*
X133604000Y-71272400D02*
X134340600Y-70535800D01*
X131619000Y-78119673D02*
X131619000Y-72095927D01*
X134340600Y-69443600D02*
X133604000Y-68707000D01*
X126091000Y-107803000D02*
X127787400Y-109499400D01*
X132442527Y-71272400D02*
X133604000Y-71272400D01*
X130007927Y-78787000D02*
X130951673Y-78787000D01*
X127787400Y-113646894D02*
X132047306Y-117906800D01*
X134340600Y-70535800D02*
X134340600Y-69443600D01*
X154203400Y-131064000D02*
X155473400Y-132334000D01*
X133604000Y-68707000D02*
X130048000Y-68707000D01*
X126091000Y-72664000D02*
X126091000Y-107803000D01*
X152286090Y-131064000D02*
X154203400Y-131064000D01*
X130048000Y-68707000D02*
X126091000Y-72664000D01*
X127787400Y-109499400D02*
X127787400Y-113646894D01*
X132047306Y-117906800D02*
X139128890Y-117906800D01*
X139128890Y-117906800D02*
X152286090Y-131064000D01*
%TO.N,Net-(U1-ENCB)*%
X152933400Y-145034000D02*
X153996400Y-146097000D01*
X150342600Y-151968200D02*
X150342600Y-150630300D01*
X153996400Y-153094310D02*
X153373710Y-153717000D01*
X152091400Y-153717000D02*
X150342600Y-151968200D01*
X153373710Y-153717000D02*
X152091400Y-153717000D01*
X153996400Y-146097000D02*
X153996400Y-153094310D01*
X150342600Y-150630300D02*
X123047072Y-123334772D01*
X123047072Y-123334772D02*
X123047072Y-119780454D01*
%TO.N,Net-(U3-GPIO26)*%
X145415000Y-163042600D02*
X152933400Y-155524200D01*
X152933400Y-155524200D02*
X152933400Y-155194000D01*
%TO.N,Net-(U1-SW4)*%
X137344771Y-128336446D02*
X137344771Y-134525371D01*
X137344771Y-134525371D02*
X152933400Y-150114000D01*
%TO.N,Net-(U1-SW1)*%
X130705039Y-112122487D02*
X135795287Y-112122487D01*
X154178000Y-128498600D02*
X155473400Y-129794000D01*
X135795287Y-112122487D02*
X152171400Y-128498600D01*
X152171400Y-128498600D02*
X154178000Y-128498600D01*
%TO.N,Net-(U1-COMA)*%
X136142690Y-119780454D02*
X136142690Y-124912635D01*
X136142690Y-124912635D02*
X142911600Y-131681545D01*
X142911600Y-131681545D02*
X142911600Y-132723616D01*
X150141984Y-139954000D02*
X152933400Y-139954000D01*
X142911600Y-132723616D02*
X150141984Y-139954000D01*
%TO.N,Net-(J1-Pin_9)*%
X130479800Y-72567800D02*
X127076200Y-75971400D01*
X127076200Y-75971400D02*
X127076200Y-94919800D01*
X127076200Y-94919800D02*
X151790400Y-119634000D01*
X151790400Y-119634000D02*
X152933400Y-119634000D01*
%TO.N,Net-(J1-Pin_35)*%
X130479800Y-39547800D02*
X125095000Y-44932600D01*
X125095000Y-44932600D02*
X125095000Y-124815600D01*
X125095000Y-124815600D02*
X152933400Y-152654000D01*
%TO.N,Net-(J1-Pin_12)*%
X133019800Y-70027800D02*
X131749800Y-71297800D01*
X129667000Y-71297800D02*
X126492000Y-74472800D01*
X131749800Y-71297800D02*
X129667000Y-71297800D01*
X126492000Y-74472800D02*
X126492000Y-95109910D01*
X126492000Y-95109910D02*
X152336890Y-120954800D01*
X152336890Y-120954800D02*
X154254200Y-120954800D01*
X154254200Y-120954800D02*
X155473400Y-122174000D01*
%TO.N,Net-(J1-Pin_5)*%
X130479800Y-77647800D02*
X127685800Y-80441800D01*
X127685800Y-80441800D02*
X127685800Y-94742000D01*
X127685800Y-94742000D02*
X147497800Y-114554000D01*
X147497800Y-114554000D02*
X152933400Y-114554000D01*
%TO.N,Net-(J1-Pin_38)*%
X133019800Y-37007800D02*
X156692600Y-60680600D01*
X156692600Y-60680600D02*
X156692600Y-153974800D01*
X156692600Y-153974800D02*
X155473400Y-155194000D01*
%TO.N,Net-(J1-Pin_4)*%
X133019800Y-80187800D02*
X135382000Y-82550000D01*
X154254200Y-110794800D02*
X155473400Y-112014000D01*
X135382000Y-82550000D02*
X135382000Y-89796600D01*
X135382000Y-89796600D02*
X154254200Y-108668800D01*
X154254200Y-108668800D02*
X154254200Y-110794800D01*
%TO.N,Net-(J1-Pin_3)*%
X130479800Y-80187800D02*
X128854200Y-81813400D01*
X128854200Y-81813400D02*
X128854200Y-87934800D01*
X128854200Y-87934800D02*
X152933400Y-112014000D01*
%TO.N,Net-(J1-Pin_1)*%
X152933400Y-109474000D02*
X134670800Y-91211400D01*
X134670800Y-91211400D02*
X134670800Y-86918800D01*
X134670800Y-86918800D02*
X130479800Y-82727800D01*
%TO.N,Net-(U1-SW3)*%
X155473400Y-147574000D02*
X154397400Y-148650000D01*
X154397400Y-153260410D02*
X153539810Y-154118000D01*
X139887485Y-154118000D02*
X113444562Y-127675077D01*
X154397400Y-148650000D02*
X154397400Y-153260410D01*
X113444562Y-127675077D02*
X113444562Y-116838890D01*
X153539810Y-154118000D02*
X139887485Y-154118000D01*
%TD*%
M02*
