%TF.GenerationSoftware,KiCad,Pcbnew,9.0.0*%
%TF.CreationDate,2025-03-07T03:21:26-05:00*%
%TF.ProjectId,Radio,52616469-6f2e-46b6-9963-61645f706362,1*%
%TF.SameCoordinates,Original*%
%TF.FileFunction,Legend,Bot*%
%TF.FilePolarity,Positive*%
%FSLAX46Y46*%
G04 Gerber Fmt 4.6, Leading zero omitted, Abs format (unit mm)*
G04 Created by KiCad (PCBNEW 9.0.0) date 2025-03-07 03:21:26*
%MOMM*%
%LPD*%
G01*
G04 APERTURE LIST*
%ADD10C,0.150000*%
%ADD11C,0.100000*%
G04 APERTURE END LIST*
D10*
X149177135Y-35721000D02*
X149062849Y-35759095D01*
X149062849Y-35759095D02*
X148872373Y-35759095D01*
X148872373Y-35759095D02*
X148796182Y-35721000D01*
X148796182Y-35721000D02*
X148758087Y-35682904D01*
X148758087Y-35682904D02*
X148719992Y-35606714D01*
X148719992Y-35606714D02*
X148719992Y-35530523D01*
X148719992Y-35530523D02*
X148758087Y-35454333D01*
X148758087Y-35454333D02*
X148796182Y-35416238D01*
X148796182Y-35416238D02*
X148872373Y-35378142D01*
X148872373Y-35378142D02*
X149024754Y-35340047D01*
X149024754Y-35340047D02*
X149100944Y-35301952D01*
X149100944Y-35301952D02*
X149139039Y-35263857D01*
X149139039Y-35263857D02*
X149177135Y-35187666D01*
X149177135Y-35187666D02*
X149177135Y-35111476D01*
X149177135Y-35111476D02*
X149139039Y-35035285D01*
X149139039Y-35035285D02*
X149100944Y-34997190D01*
X149100944Y-34997190D02*
X149024754Y-34959095D01*
X149024754Y-34959095D02*
X148834277Y-34959095D01*
X148834277Y-34959095D02*
X148719992Y-34997190D01*
X148377134Y-35225761D02*
X148377134Y-36025761D01*
X148377134Y-35263857D02*
X148300944Y-35225761D01*
X148300944Y-35225761D02*
X148148563Y-35225761D01*
X148148563Y-35225761D02*
X148072372Y-35263857D01*
X148072372Y-35263857D02*
X148034277Y-35301952D01*
X148034277Y-35301952D02*
X147996182Y-35378142D01*
X147996182Y-35378142D02*
X147996182Y-35606714D01*
X147996182Y-35606714D02*
X148034277Y-35682904D01*
X148034277Y-35682904D02*
X148072372Y-35721000D01*
X148072372Y-35721000D02*
X148148563Y-35759095D01*
X148148563Y-35759095D02*
X148300944Y-35759095D01*
X148300944Y-35759095D02*
X148377134Y-35721000D01*
X147348562Y-35721000D02*
X147424753Y-35759095D01*
X147424753Y-35759095D02*
X147577134Y-35759095D01*
X147577134Y-35759095D02*
X147653324Y-35721000D01*
X147653324Y-35721000D02*
X147691420Y-35644809D01*
X147691420Y-35644809D02*
X147691420Y-35340047D01*
X147691420Y-35340047D02*
X147653324Y-35263857D01*
X147653324Y-35263857D02*
X147577134Y-35225761D01*
X147577134Y-35225761D02*
X147424753Y-35225761D01*
X147424753Y-35225761D02*
X147348562Y-35263857D01*
X147348562Y-35263857D02*
X147310467Y-35340047D01*
X147310467Y-35340047D02*
X147310467Y-35416238D01*
X147310467Y-35416238D02*
X147691420Y-35492428D01*
X146624753Y-35759095D02*
X146624753Y-35340047D01*
X146624753Y-35340047D02*
X146662848Y-35263857D01*
X146662848Y-35263857D02*
X146739039Y-35225761D01*
X146739039Y-35225761D02*
X146891420Y-35225761D01*
X146891420Y-35225761D02*
X146967610Y-35263857D01*
X146624753Y-35721000D02*
X146700944Y-35759095D01*
X146700944Y-35759095D02*
X146891420Y-35759095D01*
X146891420Y-35759095D02*
X146967610Y-35721000D01*
X146967610Y-35721000D02*
X147005706Y-35644809D01*
X147005706Y-35644809D02*
X147005706Y-35568619D01*
X147005706Y-35568619D02*
X146967610Y-35492428D01*
X146967610Y-35492428D02*
X146891420Y-35454333D01*
X146891420Y-35454333D02*
X146700944Y-35454333D01*
X146700944Y-35454333D02*
X146624753Y-35416238D01*
X146243800Y-35759095D02*
X146243800Y-34959095D01*
X146167610Y-35454333D02*
X145939038Y-35759095D01*
X145939038Y-35225761D02*
X146243800Y-35530523D01*
X145291419Y-35721000D02*
X145367610Y-35759095D01*
X145367610Y-35759095D02*
X145519991Y-35759095D01*
X145519991Y-35759095D02*
X145596181Y-35721000D01*
X145596181Y-35721000D02*
X145634277Y-35644809D01*
X145634277Y-35644809D02*
X145634277Y-35340047D01*
X145634277Y-35340047D02*
X145596181Y-35263857D01*
X145596181Y-35263857D02*
X145519991Y-35225761D01*
X145519991Y-35225761D02*
X145367610Y-35225761D01*
X145367610Y-35225761D02*
X145291419Y-35263857D01*
X145291419Y-35263857D02*
X145253324Y-35340047D01*
X145253324Y-35340047D02*
X145253324Y-35416238D01*
X145253324Y-35416238D02*
X145634277Y-35492428D01*
X144910467Y-35759095D02*
X144910467Y-35225761D01*
X144910467Y-35378142D02*
X144872372Y-35301952D01*
X144872372Y-35301952D02*
X144834277Y-35263857D01*
X144834277Y-35263857D02*
X144758086Y-35225761D01*
X144758086Y-35225761D02*
X144681896Y-35225761D01*
X147348335Y-128875523D02*
X146967382Y-128875523D01*
X147424525Y-129104095D02*
X147157858Y-128304095D01*
X147157858Y-128304095D02*
X146891192Y-129104095D01*
X146624525Y-128570761D02*
X146624525Y-129104095D01*
X146624525Y-128646952D02*
X146586430Y-128608857D01*
X146586430Y-128608857D02*
X146510240Y-128570761D01*
X146510240Y-128570761D02*
X146395954Y-128570761D01*
X146395954Y-128570761D02*
X146319763Y-128608857D01*
X146319763Y-128608857D02*
X146281668Y-128685047D01*
X146281668Y-128685047D02*
X146281668Y-129104095D01*
X146015001Y-128570761D02*
X145710239Y-128570761D01*
X145900715Y-128304095D02*
X145900715Y-128989809D01*
X145900715Y-128989809D02*
X145862620Y-129066000D01*
X145862620Y-129066000D02*
X145786430Y-129104095D01*
X145786430Y-129104095D02*
X145710239Y-129104095D01*
X145138810Y-129066000D02*
X145215001Y-129104095D01*
X145215001Y-129104095D02*
X145367382Y-129104095D01*
X145367382Y-129104095D02*
X145443572Y-129066000D01*
X145443572Y-129066000D02*
X145481668Y-128989809D01*
X145481668Y-128989809D02*
X145481668Y-128685047D01*
X145481668Y-128685047D02*
X145443572Y-128608857D01*
X145443572Y-128608857D02*
X145367382Y-128570761D01*
X145367382Y-128570761D02*
X145215001Y-128570761D01*
X145215001Y-128570761D02*
X145138810Y-128608857D01*
X145138810Y-128608857D02*
X145100715Y-128685047D01*
X145100715Y-128685047D02*
X145100715Y-128761238D01*
X145100715Y-128761238D02*
X145481668Y-128837428D01*
X144757858Y-128570761D02*
X144757858Y-129104095D01*
X144757858Y-128646952D02*
X144719763Y-128608857D01*
X144719763Y-128608857D02*
X144643573Y-128570761D01*
X144643573Y-128570761D02*
X144529287Y-128570761D01*
X144529287Y-128570761D02*
X144453096Y-128608857D01*
X144453096Y-128608857D02*
X144415001Y-128685047D01*
X144415001Y-128685047D02*
X144415001Y-129104095D01*
X144034048Y-128570761D02*
X144034048Y-129104095D01*
X144034048Y-128646952D02*
X143995953Y-128608857D01*
X143995953Y-128608857D02*
X143919763Y-128570761D01*
X143919763Y-128570761D02*
X143805477Y-128570761D01*
X143805477Y-128570761D02*
X143729286Y-128608857D01*
X143729286Y-128608857D02*
X143691191Y-128685047D01*
X143691191Y-128685047D02*
X143691191Y-129104095D01*
X142967381Y-129104095D02*
X142967381Y-128685047D01*
X142967381Y-128685047D02*
X143005476Y-128608857D01*
X143005476Y-128608857D02*
X143081667Y-128570761D01*
X143081667Y-128570761D02*
X143234048Y-128570761D01*
X143234048Y-128570761D02*
X143310238Y-128608857D01*
X142967381Y-129066000D02*
X143043572Y-129104095D01*
X143043572Y-129104095D02*
X143234048Y-129104095D01*
X143234048Y-129104095D02*
X143310238Y-129066000D01*
X143310238Y-129066000D02*
X143348334Y-128989809D01*
X143348334Y-128989809D02*
X143348334Y-128913619D01*
X143348334Y-128913619D02*
X143310238Y-128837428D01*
X143310238Y-128837428D02*
X143234048Y-128799333D01*
X143234048Y-128799333D02*
X143043572Y-128799333D01*
X143043572Y-128799333D02*
X142967381Y-128761238D01*
D11*
X121262733Y-91608619D02*
X121262733Y-92322904D01*
X121262733Y-92322904D02*
X121310352Y-92465761D01*
X121310352Y-92465761D02*
X121405590Y-92561000D01*
X121405590Y-92561000D02*
X121548447Y-92608619D01*
X121548447Y-92608619D02*
X121643685Y-92608619D01*
X120262733Y-92608619D02*
X120834161Y-92608619D01*
X120548447Y-92608619D02*
X120548447Y-91608619D01*
X120548447Y-91608619D02*
X120643685Y-91751476D01*
X120643685Y-91751476D02*
X120738923Y-91846714D01*
X120738923Y-91846714D02*
X120834161Y-91894333D01*
%TO.C,J1*%
X105249800Y-29099200D02*
X105249800Y-88097800D01*
X108249800Y-91097800D02*
X132910200Y-91097800D01*
X132910200Y-26099200D02*
X108249800Y-26099200D01*
X135910200Y-88097800D02*
X135910200Y-29099200D01*
X105249800Y-29099200D02*
G75*
G02*
X108249800Y-26099200I3000000J0D01*
G01*
X108249800Y-91097800D02*
G75*
G02*
X105249800Y-88097800I0J3000000D01*
G01*
X132910200Y-26099200D02*
G75*
G02*
X135910200Y-29099200I0J-3000000D01*
G01*
X135910200Y-88097800D02*
G75*
G02*
X132910200Y-91097800I-3000000J0D01*
G01*
%TD*%
M02*
