M48
; DRILL file {KiCad 9.0.0} date 2025-03-07T03:21:34-0500
; FORMAT={-:-/ absolute / metric / decimal}
; #@! TF.CreationDate,2025-03-07T03:21:34-05:00
; #@! TF.GenerationSoftware,Kicad,Pcbnew,9.0.0
; #@! TF.FileFunction,Plated,1,2,PTH
FMAT,2
METRIC
; #@! TA.AperFunction,Plated,PTH,ComponentDrill
T1C0.900
; #@! TA.AperFunction,Plated,PTH,ComponentDrill
T2C1.000
; #@! TA.AperFunction,Plated,PTH,ComponentDrill
T3C1.016
; #@! TA.AperFunction,Plated,PTH,ComponentDrill
T4C1.400
%
G90
G05
T1
X130.48Y-34.468
X130.48Y-37.008
X130.48Y-39.548
X130.48Y-42.088
X130.48Y-44.628
X130.48Y-47.168
X130.48Y-49.708
X130.48Y-52.248
X130.48Y-54.788
X130.48Y-57.328
X130.48Y-59.868
X130.48Y-62.408
X130.48Y-64.948
X130.48Y-67.488
X130.48Y-70.028
X130.48Y-72.568
X130.48Y-75.108
X130.48Y-77.648
X130.48Y-80.188
X130.48Y-82.728
X133.02Y-34.468
X133.02Y-37.008
X133.02Y-39.548
X133.02Y-42.088
X133.02Y-44.628
X133.02Y-47.168
X133.02Y-49.708
X133.02Y-52.248
X133.02Y-54.788
X133.02Y-57.328
X133.02Y-59.868
X133.02Y-62.408
X133.02Y-64.948
X133.02Y-67.488
X133.02Y-70.028
X133.02Y-72.568
X133.02Y-75.108
X133.02Y-77.648
X133.02Y-80.188
X133.02Y-82.728
T2
X125.095Y-137.643
X125.095Y-163.043
X127.127Y-21.946
X127.635Y-137.643
X127.635Y-163.043
X129.667Y-21.946
X130.175Y-137.643
X130.175Y-163.043
X132.207Y-21.946
X132.715Y-137.643
X132.715Y-163.043
X134.747Y-21.946
X135.255Y-137.643
X135.255Y-163.043
X137.795Y-163.043
X140.335Y-163.043
X142.875Y-163.043
X145.415Y-163.043
T3
X152.933Y-109.474
X152.933Y-112.014
X152.933Y-114.554
X152.933Y-117.094
X152.933Y-119.634
X152.933Y-122.174
X152.933Y-124.714
X152.933Y-127.254
X152.933Y-129.794
X152.933Y-132.334
X152.933Y-134.874
X152.933Y-137.414
X152.933Y-139.954
X152.933Y-142.494
X152.933Y-145.034
X152.933Y-147.574
X152.933Y-150.114
X152.933Y-152.654
X152.933Y-155.194
X152.933Y-157.734
X155.473Y-109.474
X155.473Y-112.014
X155.473Y-114.554
X155.473Y-117.094
X155.473Y-119.634
X155.473Y-122.174
X155.473Y-124.714
X155.473Y-127.254
X155.473Y-129.794
X155.473Y-132.334
X155.473Y-134.874
X155.473Y-137.414
X155.473Y-139.954
X155.473Y-142.494
X155.473Y-145.034
X155.473Y-147.574
X155.473Y-150.114
X155.473Y-152.654
X155.473Y-155.194
X155.473Y-157.734
T4
X113.445Y-116.839
X121.845Y-98.129
X123.047Y-106.685
X123.047Y-119.78
X130.705Y-112.122
X132.848Y-97.153
X136.143Y-119.78
X137.345Y-128.336
X145.745Y-109.626
M30
